<svg id="Layer_1" data-name="Layer 1" xmlns="http://www.w3.org/2000/svg" viewBox="0 0 503.49 144.71"><defs><style>.cls-1{fill:#f0f0f0;}.cls-2{fill:#287e7c;}.cls-3{fill:#7eb1b1;}</style></defs><polygon class="cls-1" points="472.06 141.38 499.1 141.38 499.1 17.16 15.14 17.16 15.14 141.38 248.25 141.38 472.06 141.38"/><path class="cls-2" d="M74.42,42.41v1.34a6.53,6.53,0,0,0-3.22,1.11,4.31,4.31,0,0,0-1.45,2.65,27.59,27.59,0,0,0-.37,5.1V90.06c-.53,0-1.08-.07-1.64-.07s-1.15,0-1.78.07L36.83,53.15V78.92a30,30,0,0,0,.41,5.67A4,4,0,0,0,39,87.41a10.93,10.93,0,0,0,4.32,1.17v1.35c-.85-.09-2-.15-3.35-.17s-2.69,0-3.89,0c-1,0-2.08,0-3.16,0a25.71,25.71,0,0,0-2.68.17V88.58a7.22,7.22,0,0,0,3.22-1.14,4.16,4.16,0,0,0,1.44-2.65,26.82,26.82,0,0,0,.37-5.07V49.52a13.14,13.14,0,0,0-.37-3.66,2.44,2.44,0,0,0-1.47-1.61,10.2,10.2,0,0,0-3.19-.5V42.41c.71,0,1.61.09,2.68.13s2.13.07,3.16.07,2.1,0,3.08-.07l2.69-.13,26,32v-21a30.33,30.33,0,0,0-.4-5.68,4.15,4.15,0,0,0-1.78-2.85,10.11,10.11,0,0,0-4.33-1.14V42.41c.85,0,2,.09,3.36.13s2.68.07,3.89.07,2.14,0,3.19-.07S73.7,42.45,74.42,42.41Z"/><path class="cls-2" d="M89.52,90.39q-4.5,0-6.51-2.34a8.49,8.49,0,0,1-2-5.71,7.87,7.87,0,0,1,1.3-4.7,10.64,10.64,0,0,1,3.39-3,25.16,25.16,0,0,1,4.4-2c1.54-.51,3-1,4.43-1.54a13,13,0,0,0,3.42-1.78,3.09,3.09,0,0,0,1.31-2.55V61.6a8.11,8.11,0,0,0-.57-3.12,4.4,4.4,0,0,0-1.75-2.11,5.67,5.67,0,0,0-3.05-.74A9.9,9.9,0,0,0,91.2,56,4.93,4.93,0,0,0,89,57.24a6.13,6.13,0,0,1,2.92,2,5.05,5.05,0,0,1,1,3.12A4.51,4.51,0,0,1,91.36,66a5.52,5.52,0,0,1-3.72,1.34A4.46,4.46,0,0,1,84,65.86a5.53,5.53,0,0,1-1.24-3.65,5.14,5.14,0,0,1,1-3.22,10.91,10.91,0,0,1,2.72-2.42A16.22,16.22,0,0,1,91,54.89a26,26,0,0,1,5.74-.6,22.2,22.2,0,0,1,5.57.64,8.84,8.84,0,0,1,4.16,2.31,7.32,7.32,0,0,1,2,3.79,27.94,27.94,0,0,1,.47,5.67V85a5.59,5.59,0,0,0,.34,2.28,1.16,1.16,0,0,0,1.14.67,2.65,2.65,0,0,0,1.28-.33,7.39,7.39,0,0,0,1.14-.81l.67,1.14a10,10,0,0,1-3.26,1.85,12.68,12.68,0,0,1-4.12.63c-2.69,0-4.47-.54-5.34-1.64A6.3,6.3,0,0,1,99.38,85a11,11,0,0,1-4.12,4.09A11.73,11.73,0,0,1,89.52,90.39Zm5.17-4.29a4.92,4.92,0,0,0,2.38-.6,6.88,6.88,0,0,0,2.18-2.15V69.59A6.81,6.81,0,0,1,97,71.84c-1,.6-1.94,1.25-3,1.94a8.9,8.9,0,0,0-2.52,2.66,8,8,0,0,0-1,4.29,5.84,5.84,0,0,0,1.21,4.13A4,4,0,0,0,94.69,86.1Z"/><path class="cls-2" d="M135,55.23v1.41a17.81,17.81,0,0,0-2.58.16,1.8,1.8,0,0,0-1.48,1,4,4,0,0,0,.24,2.62l6.37,19.93-.87.94,7.85-26.11,1.35.6-10.27,34.3c-.72,0-1.43-.07-2.15-.07s-1.45,0-2.21.07L120.59,60.4c-.63-1.79-1.31-2.87-2-3.23a4.51,4.51,0,0,0-1.84-.53V55.23c1.43.13,2.92.23,4.46.3s3.23.1,5.07.1c1.39,0,2.85,0,4.4-.13Zm35,0v1.34a5.18,5.18,0,0,0-2.42,1.54,11.83,11.83,0,0,0-2.15,4.23L156.5,90.06c-.72,0-1.45-.07-2.18-.07s-1.47,0-2.18.07l-9.47-25.84,1.81-9.06c.81,0,1.63.06,2.45,0l2.45,0,9.2,27.11-.74-.73,4.5-14.23q1.74-5.51.37-8A5.52,5.52,0,0,0,158,56.57V55.23c.72,0,1.49.08,2.32.1l2.48.07,2.12,0c.89,0,1.82,0,2.78-.07S169.41,55.27,170,55.23Z"/><path class="cls-2" d="M208.44,55.23v1.34A5,5,0,0,0,206,58.15a13,13,0,0,0-2.22,4.19l-9.46,26.58-2.48,4.7L177.23,60.4c-.76-1.75-1.51-2.81-2.24-3.19a4.35,4.35,0,0,0-1.92-.57V55.23c1.48.13,3,.23,4.6.3s3.12.1,4.6.1c1.83,0,3.51,0,5-.13l4.3-.27v1.41a18.11,18.11,0,0,0-2.52.16,2.08,2.08,0,0,0-1.61.94c-.29.52-.17,1.4.37,2.66l8.45,20.4-.6.4,5-13.89q1.88-5.45.6-8a5.14,5.14,0,0,0-4.5-2.78V55.23l3.36.13c1.21,0,2.26.07,3.15.07s1.84,0,2.82-.07S207.86,55.27,208.44,55.23ZM194.35,88.92,191.8,96.1a10.94,10.94,0,0,1-3,4.76,6.67,6.67,0,0,1-2.42,1.25,12.2,12.2,0,0,1-3.42.43,11.08,11.08,0,0,1-3.33-.54,6.4,6.4,0,0,1-2.85-1.74,4.3,4.3,0,0,1-1.14-3.09,4.11,4.11,0,0,1,1.48-3.32,6.69,6.69,0,0,1,7.51-.17,3.73,3.73,0,0,1,1.41,3.16,4.42,4.42,0,0,1-.84,2.55,5,5,0,0,1-2.51,1.81,4.49,4.49,0,0,0,.8.07h.74a5.44,5.44,0,0,0,3.56-1.28,9.18,9.18,0,0,0,2.55-4l2.35-6.92Z"/><path class="cls-2" d="M226.16,37.38v46.3c0,1.88.3,3.16.91,3.83a4,4,0,0,0,3.12,1v1.41c-.85-.05-2.09-.11-3.73-.17s-3.3-.1-5-.1-3.5,0-5.27.1-3.09.12-4,.17V88.52a4.5,4.5,0,0,0,3.32-1c.65-.67,1-2,1-3.83V45.43a8.62,8.62,0,0,0-.91-4.46c-.6-1-1.73-1.45-3.39-1.45V38.11c1.43.14,2.82.2,4.16.2,1.84,0,3.58-.07,5.24-.23A37.77,37.77,0,0,0,226.16,37.38ZM248,55.23v1.34a11.86,11.86,0,0,0-4.16,1.74,27.82,27.82,0,0,0-4.23,3.43l-5.17,5.37.67-1.28L246.63,85a16.84,16.84,0,0,0,1.54,2.14,4.53,4.53,0,0,0,2,1.35v1.41c-.67-.05-1.68-.11-3-.17s-2.68-.1-4-.1c-1.65,0-3.31,0-5,.1s-2.89.12-3.69.17V88.52a2.16,2.16,0,0,0,1.81-.64,1.42,1.42,0,0,0-.14-1.65l-6.64-12a4.21,4.21,0,0,0-1.58-1.64,5.28,5.28,0,0,0-2-.44V70.86a11.28,11.28,0,0,0,2.44-.46,4.51,4.51,0,0,0,1.92-1.28l5.1-5q2.28-2.15,2.28-3.82a3.13,3.13,0,0,0-1.44-2.69,6.93,6.93,0,0,0-3.79-1.07V55.23l4.09.13c1.48,0,2.73.07,3.76.07l2.85,0,2.85-.07C246.79,55.31,247.5,55.27,248,55.23Z"/><path class="cls-2" d="M271.6,54.29a19.26,19.26,0,0,1,8.59,1.81A12.8,12.8,0,0,1,286,61.94Q288,66,288,72.61T286,83.25a12.85,12.85,0,0,1-5.77,5.8,21.05,21.05,0,0,1-17.08,0,13,13,0,0,1-5.84-5.8q-2.11-4-2.12-10.64t2.12-10.67a12.89,12.89,0,0,1,5.84-5.84A19.12,19.12,0,0,1,271.6,54.29Zm0,1.34q-2.69,0-4.5,4t-1.81,13q0,9,1.81,13t4.5,4q2.75,0,4.53-4t1.77-13q0-9-1.77-13T271.6,55.63Z"/><path class="cls-2" d="M311.6,55.23v1.41a17.86,17.86,0,0,0-2.59.16,1.77,1.77,0,0,0-1.47,1,3.87,3.87,0,0,0,.23,2.62l6.38,19.93-.88.94,7.86-26.11,1.34.6L312.2,90.06c-.72,0-1.43-.07-2.15-.07s-1.45,0-2.21.07L297.23,60.4c-.62-1.79-1.31-2.87-2-3.23a4.59,4.59,0,0,0-1.85-.53V55.23c1.43.13,2.92.23,4.46.3s3.24.1,5.07.1c1.39,0,2.85,0,4.4-.13Zm35,0v1.34a5.18,5.18,0,0,0-2.42,1.54,12,12,0,0,0-2.15,4.23l-8.92,27.72c-.72,0-1.44-.07-2.18-.07s-1.47,0-2.18.07l-9.47-25.84,1.82-9.06c.8,0,1.62.06,2.45,0l2.44,0,9.2,27.11-.74-.73L339,67.31q1.74-5.51.37-8a5.52,5.52,0,0,0-4.73-2.75V55.23c.71,0,1.48.08,2.31.1l2.48.07,2.12,0c.89,0,1.82,0,2.78-.07S346.05,55.27,346.63,55.23Z"/><path class="cls-2" d="M377.23,54.29a12.68,12.68,0,0,1,4.6.7,6.77,6.77,0,0,1,2.78,1.92,7.92,7.92,0,0,1,1.58,3.28,23.13,23.13,0,0,1,.51,5.44V83.68c0,1.88.32,3.16,1,3.83a4.5,4.5,0,0,0,3.32,1v1.41c-.85-.05-2.13-.11-3.83-.17s-3.37-.1-5-.1-3.37,0-5,.1-2.87.12-3.72.17V88.52a3.44,3.44,0,0,0,2.82-1c.53-.67.8-2,.8-3.83V62.81a11.46,11.46,0,0,0-.33-2.92A3.66,3.66,0,0,0,375.49,58a4.13,4.13,0,0,0-2.62-.71,6,6,0,0,0-4.73,2.22A8.18,8.18,0,0,0,366.23,65V83.68c0,1.88.27,3.16.83,3.83a3.45,3.45,0,0,0,2.79,1v1.41c-.81-.05-2-.11-3.52-.17s-3.15-.1-4.8-.1-3.45,0-5.24.1-3.13.12-4,.17V88.52a4.51,4.51,0,0,0,3.32-1c.65-.67,1-2,1-3.83V62.54a8.52,8.52,0,0,0-.91-4.46c-.6-1-1.73-1.44-3.38-1.44V55.23c1.43.13,2.81.2,4.16.2,1.88,0,3.63-.08,5.27-.24a36,36,0,0,0,4.53-.7v6a10,10,0,0,1,4.56-4.83A14.46,14.46,0,0,1,377.23,54.29Z"/><path class="cls-2" d="M411.46,54.49V83.68c0,1.88.32,3.16,1,3.83a4.51,4.51,0,0,0,3.32,1v1.41c-.8-.05-2.05-.11-3.75-.17s-3.43-.1-5.17-.1-3.51,0-5.3.1-3.14.12-4,.17V88.52a4.51,4.51,0,0,0,3.32-1c.65-.67,1-2,1-3.83V62.54a8.63,8.63,0,0,0-.9-4.46q-.92-1.44-3.39-1.44V55.23c1.43.13,2.82.2,4.16.2,1.88,0,3.64-.08,5.27-.24A36,36,0,0,0,411.46,54.49Zm-5.24-16.58a6.75,6.75,0,0,1,4.47,1.38,4.69,4.69,0,0,1,1.64,3.79,4.68,4.68,0,0,1-1.64,3.79,7.91,7.91,0,0,1-8.93,0,4.65,4.65,0,0,1-1.64-3.79,4.66,4.66,0,0,1,1.64-3.79A6.74,6.74,0,0,1,406.22,37.91Z"/><path class="cls-2" d="M436.29,37.38v46.3c0,1.88.3,3.16.91,3.83a4,4,0,0,0,3.12,1v1.41c-.85-.05-2.09-.11-3.73-.17s-3.3-.1-5-.1-3.5,0-5.27.1-3.09.12-4,.17V88.52a4.5,4.5,0,0,0,3.32-1c.65-.67,1-2,1-3.83V45.43a8.62,8.62,0,0,0-.91-4.46c-.6-1-1.73-1.45-3.39-1.45V38.11c1.43.14,2.82.2,4.16.2,1.84,0,3.58-.07,5.24-.23A37.77,37.77,0,0,0,436.29,37.38Zm21.88,17.85v1.34A11.86,11.86,0,0,0,454,58.31a27.82,27.82,0,0,0-4.23,3.43l-5.17,5.37.67-1.28L456.76,85a16.84,16.84,0,0,0,1.54,2.14,4.53,4.53,0,0,0,1.95,1.35v1.41c-.67-.05-1.68-.11-3-.17s-2.68-.1-4-.1c-1.65,0-3.31,0-5,.1s-2.89.12-3.69.17V88.52a2.16,2.16,0,0,0,1.81-.64,1.42,1.42,0,0,0-.14-1.65l-6.64-12A4.21,4.21,0,0,0,438,72.58a5.29,5.29,0,0,0-2.05-.44V70.86a11.26,11.26,0,0,0,2.45-.46,4.51,4.51,0,0,0,1.92-1.28l5.1-5q2.28-2.15,2.28-3.82a3.13,3.13,0,0,0-1.44-2.69,6.94,6.94,0,0,0-3.8-1.07V55.23l4.1.13c1.47,0,2.73.07,3.76.07l2.85,0,2.85-.07C456.92,55.31,457.63,55.27,458.17,55.23Z"/><path class="cls-3" d="M254.86,113.07v13.87h-2v-6.19h-8v6.19h-2V113.07h2v6h8v-6Z"/><path class="cls-3" d="M270.23,123.47h-7.37l-1.53,3.47h-2l6.28-13.87h2l6.3,13.87h-2.08Zm-.69-1.59-3-6.79-3,6.79Z"/><path class="cls-3" d="M290.2,123.19c0,2.38-1.8,3.75-5.31,3.75h-6.62V113.07h6.22c3.2,0,5,1.34,5,3.58a3.27,3.27,0,0,1-1.86,3.09A3.36,3.36,0,0,1,290.2,123.19Zm-9.95-8.52v4.44h4.07c2,0,3.17-.75,3.17-2.22s-1.15-2.22-3.17-2.22ZM288.2,123c0-1.6-1.19-2.31-3.39-2.31h-4.56v4.61h4.56C287,125.33,288.2,124.64,288.2,123Z"/><path class="cls-3" d="M307.58,123.19c0,2.38-1.81,3.75-5.32,3.75h-6.61V113.07h6.22c3.19,0,5,1.34,5,3.58a3.27,3.27,0,0,1-1.86,3.09A3.36,3.36,0,0,1,307.58,123.19Zm-9.95-8.52v4.44h4.06c2,0,3.17-.75,3.17-2.22s-1.15-2.22-3.17-2.22Zm7.94,8.36c0-1.6-1.18-2.31-3.38-2.31h-4.56v4.61h4.56C304.39,125.33,305.57,124.64,305.57,123Z"/><path class="cls-3" d="M313,113.07h2v13.87h-2Z"/><path class="cls-3" d="M324.29,114.79h-4.75v-1.72H331v1.72h-4.76v12.15h-2Z"/><path class="cls-3" d="M346,114.79h-4.75v-1.72h11.47v1.72H348v12.15h-2Z"/><path class="cls-3" d="M366.53,126.94l-3-4.26c-.28,0-.58,0-.87,0h-3.43v4.22h-2V113.07h5.41c3.6,0,5.78,1.82,5.78,4.83a4.38,4.38,0,0,1-3.05,4.38l3.29,4.66Zm-.06-9c0-2-1.33-3.11-3.86-3.11h-3.37V121h3.37C365.14,121,366.47,119.88,366.47,117.9Z"/><path class="cls-3" d="M382.87,123.47H375.5L374,126.94h-2l6.28-13.87h2l6.3,13.87H384.4Zm-.69-1.59-3-6.79-3,6.79Z"/><path class="cls-3" d="M389.59,120a7,7,0,0,1,7.35-7.09,6.84,6.84,0,0,1,5.27,2.16l-1.29,1.25a5.14,5.14,0,0,0-3.9-1.65,5.33,5.33,0,1,0,0,10.66,5.15,5.15,0,0,0,3.9-1.66l1.29,1.25a6.91,6.91,0,0,1-5.29,2.18A7,7,0,0,1,389.59,120Z"/><path class="cls-3" d="M411.94,120.77l-2.54,2.58v3.59h-2V113.07h2v7.74l7.53-7.74h2.26l-5.93,6.24,6.3,7.63h-2.31Z"/><path class="cls-3" d="M434.1,125.21v1.73H424V113.07h9.79v1.72H426v4.26h7v1.68h-7v4.48Z"/><path class="cls-3" d="M449,126.94l-3-4.26c-.28,0-.57,0-.87,0h-3.43v4.22h-2V113.07h5.41c3.61,0,5.78,1.82,5.78,4.83a4.36,4.36,0,0,1-3.05,4.38l3.29,4.66Zm-.06-9c0-2-1.32-3.11-3.86-3.11h-3.37V121H445C447.58,121,448.9,119.88,448.9,117.9Z"/><polygon class="cls-3" points="482.78 127.03 455.5 127.03 455.5 125.92 481.68 125.92 481.68 4.43 4.3 4.43 4.3 125.92 234.22 125.92 234.22 127.03 3.2 127.03 3.2 3.33 482.78 3.33 482.78 127.03"/></svg>